<svg xmlns="http://www.w3.org/2000/svg" viewBox="0 0 1200 1500" role="img" aria-label="Bench press – lavice a stojan">
  <!-- Placeholder visual (dark studio look) — replace with a real photo later. -->
  <defs>
    <linearGradient id="bg" x1="0" y1="0" x2="0" y2="1">
      <stop offset="0" stop-color="#111826"/><stop offset="1" stop-color="#0a0e14"/>
    </linearGradient>
    <linearGradient id="floor" x1="0" y1="0" x2="0" y2="1">
      <stop offset="0" stop-color="#151c27"/><stop offset="1" stop-color="#0b0f15"/>
    </linearGradient>
    <radialGradient id="spot" cx=".55" cy=".2" r=".8">
      <stop offset="0" stop-color="#dfeeff" stop-opacity=".15"/>
      <stop offset=".5" stop-color="#dfeeff" stop-opacity=".04"/>
      <stop offset="1" stop-color="#dfeeff" stop-opacity="0"/>
    </radialGradient>
    <radialGradient id="vig" cx=".5" cy=".5" r=".75">
      <stop offset=".55" stop-color="#000" stop-opacity="0"/>
      <stop offset="1" stop-color="#000" stop-opacity=".55"/>
    </radialGradient>
    <filter id="soft"><feGaussianBlur stdDeviation="18"/></filter>
    <filter id="noise">
      <feTurbulence type="fractalNoise" baseFrequency=".9" numOctaves="2" stitchTiles="stitch"/>
      <feColorMatrix type="matrix" values="0 0 0 0 1  0 0 0 0 1  0 0 0 0 1  0 0 0 .05 0"/>
    </filter>
  </defs>

  <rect width="1200" height="1500" fill="url(#bg)"/>
  <rect y="1130" width="1200" height="370" fill="url(#floor)"/>
  <polygon points="500,0 860,0 1100,1130 260,1130" fill="url(#spot)"/>

  <!-- upright post holding the bar (side view) -->
  <g fill="#1d2530">
    <rect x="836" y="560" width="44" height="570" rx="8"/>
    <rect x="806" y="1112" width="120" height="20" rx="8"/>
    <rect x="822" y="660" width="76" height="18" rx="6"/>
  </g>
  <rect x="874" y="560" width="5" height="570" fill="#39465a" opacity=".8"/>

  <!-- barbell, side view: bar + one big plate facing us -->
  <rect x="330" y="648" width="700" height="13" rx="6.5" fill="#333f50"/>
  <rect x="330" y="648" width="700" height="4.5" rx="2" fill="#4a596e" opacity=".9"/>
  <circle cx="1000" cy="655" r="168" fill="#151c26"/>
  <circle cx="1000" cy="655" r="168" fill="none" stroke="#2a3442" stroke-width="6"/>
  <circle cx="1000" cy="655" r="112" fill="none" stroke="#232d3a" stroke-width="3"/>
  <circle cx="1000" cy="655" r="26" fill="#0e131b"/>
  <circle cx="1000" cy="655" r="168" fill="none" stroke="#b7ee54" stroke-opacity=".3" stroke-width="3"/>
  <rect x="300" y="640" width="26" height="30" rx="7" fill="#242e3b"/>

  <!-- bench (side view) -->
  <g>
    <rect x="270" y="880" width="560" height="52" rx="18" fill="#20293512"/>
    <rect x="270" y="878" width="560" height="50" rx="18" fill="#232d3a"/>
    <rect x="270" y="878" width="560" height="10" rx="5" fill="#31405222"/>
    <rect x="290" y="878" width="560" height="7" rx="3.5" fill="#3c4b60" opacity=".55"/>
    <rect x="330" y="928" width="26" height="188" fill="#1b232e"/>
    <rect x="700" y="928" width="26" height="188" fill="#1b232e"/>
    <rect x="296" y="1104" width="100" height="16" rx="7" fill="#1d2530"/>
    <rect x="666" y="1104" width="100" height="16" rx="7" fill="#1d2530"/>
  </g>

  <!-- shadows -->
  <ellipse cx="620" cy="1148" rx="440" ry="26" fill="#000" opacity=".45" filter="url(#soft)"/>
  <ellipse cx="1000" cy="1140" rx="180" ry="20" fill="#000" opacity=".5" filter="url(#soft)"/>

  <rect width="1200" height="1500" fill="url(#vig)"/>
  <rect width="1200" height="1500" filter="url(#noise)" opacity=".6"/>
</svg>
